<svg width="32" height="32" viewBox="0 0 32 32" fill="none" xmlns="http://www.w3.org/2000/svg">
<path d="M8.10878 20.816C7.8907 21.6365 8.0067 22.5099 8.43136 23.2449C8.85602 23.98 9.55471 24.5168 10.3744 24.7376L19.1104 27.0896C19.5159 27.1989 19.939 27.2271 20.3555 27.1726C20.7719 27.1181 21.1735 26.9819 21.5372 26.7719C21.9009 26.5618 22.2196 26.2821 22.475 25.9487C22.7304 25.6153 22.9175 25.2347 23.0256 24.8288L27.0896 9.59205C27.3082 8.77162 27.1927 7.89799 26.7683 7.16261C26.3439 6.42722 25.6453 5.89006 24.8256 5.66885L16.0896 3.31685C15.6839 3.20731 15.2607 3.17894 14.844 3.23335C14.4274 3.28777 14.0256 3.4239 13.6617 3.63394C13.2978 3.84399 12.979 4.12381 12.7235 4.45735C12.468 4.7909 12.2808 5.17161 12.1728 5.57765L8.10878 20.816ZM10.7856 23.192C10.376 23.0811 10.027 22.8124 9.81501 22.4448C9.60302 22.0772 9.54526 21.6405 9.65438 21.2304L13.7184 5.99365C13.7724 5.79082 13.8659 5.60065 13.9936 5.43403C14.1212 5.26742 14.2805 5.12763 14.4623 5.02269C14.6441 4.91776 14.8448 4.84972 15.0529 4.8225C15.2611 4.79528 15.4725 4.8094 15.6752 4.86405L24.4128 7.21605C25.2656 7.44485 25.7728 8.32325 25.5456 9.17765L21.4816 24.4128C21.4277 24.616 21.3343 24.8065 21.2066 24.9734C21.0789 25.1403 20.9195 25.2804 20.7375 25.3855C20.5555 25.4906 20.3545 25.5587 20.1462 25.5859C19.9378 25.6131 19.726 25.5989 19.5232 25.544L10.7856 23.192ZM6.40158 16.7552L4.27198 8.80965C4.05201 7.99002 4.16661 7.11659 4.59059 6.38146C5.01456 5.64633 5.71318 5.10971 6.53278 4.88965L6.65438 4.85765C6.48498 5.35535 6.39849 5.8775 6.39838 6.40325V6.70245C6.14362 6.89441 5.95205 7.15814 5.84827 7.45977C5.7445 7.76141 5.73325 8.08717 5.81598 8.39525L6.39998 10.5728L6.40158 16.7552ZM7.99998 15.0144V6.40325C7.99998 5.55455 8.33712 4.74062 8.93724 4.14051C9.53735 3.54039 10.3513 3.20325 11.2 3.20325H11.3696C11.1344 3.55685 10.9504 3.95525 10.8352 4.38885L10.704 4.88165C10.3835 4.98616 10.1041 5.18924 9.90588 5.46191C9.70762 5.73459 9.60056 6.06292 9.59998 6.40005V9.01605L7.99998 15.0144ZM20.8 9.60005C20.8 10.0244 20.6314 10.4314 20.3313 10.7314C20.0313 11.0315 19.6243 11.2 19.2 11.2C18.7756 11.2 18.3687 11.0315 18.0686 10.7314C17.7685 10.4314 17.6 10.0244 17.6 9.60005C17.6 9.1757 17.7685 8.76873 18.0686 8.46868C18.3687 8.16862 18.7756 8.00005 19.2 8.00005C19.6243 8.00005 20.0313 8.16862 20.3313 8.46868C20.6314 8.76873 20.8 9.1757 20.8 9.60005ZM16 22.4C16.4243 22.4 16.8313 22.2315 17.1313 21.9314C17.4314 21.6314 17.6 21.2244 17.6 20.8C17.6 20.3757 17.4314 19.9687 17.1313 19.6687C16.8313 19.3686 16.4243 19.2 16 19.2C15.5756 19.2 15.1687 19.3686 14.8686 19.6687C14.5685 19.9687 14.4 20.3757 14.4 20.8C14.4 21.2244 14.5685 21.6314 14.8686 21.9314C15.1687 22.2315 15.5756 22.4 16 22.4Z" fill="#1E1E1E"/>
</svg>
