<svg width="571" height="149" viewBox="0 0 571 149" fill="none" xmlns="http://www.w3.org/2000/svg">
<path d="M37.7566 96.9245C36.7412 100.745 37.2813 104.811 39.2586 108.234C41.2359 111.657 44.4892 114.156 48.3058 115.184L88.9828 126.136C90.871 126.645 92.8412 126.776 94.7802 126.522C96.7193 126.268 98.5892 125.634 100.283 124.656C101.976 123.678 103.46 122.376 104.649 120.823C105.839 119.271 106.71 117.499 107.213 115.609L126.136 44.6628C127.154 40.8427 126.616 36.7748 124.64 33.3507C122.664 29.9266 119.411 27.4254 115.594 26.3954L74.9172 15.4439C73.0285 14.9338 71.0576 14.8017 69.1177 15.0551C67.1778 15.3085 65.307 15.9423 63.6126 16.9204C61.9182 17.8984 60.4335 19.2013 59.2438 20.7544C58.0541 22.3074 57.1827 24.0801 56.6796 25.9707L37.7566 96.9245ZM50.2205 107.988C48.3133 107.471 46.6884 106.22 45.7013 104.508C44.7142 102.797 44.4452 100.764 44.9533 98.8541L63.8763 27.9077C64.1279 26.9633 64.5633 26.0778 65.1577 25.302C65.7522 24.5262 66.4938 23.8753 67.3403 23.3867C68.1867 22.8981 69.1213 22.5813 70.0903 22.4546C71.0594 22.3278 72.044 22.3935 72.9877 22.648L113.672 33.5995C117.643 34.6649 120.005 38.7549 118.947 42.7332L100.024 113.672C99.773 114.618 99.3379 115.505 98.7433 116.282C98.1487 117.059 97.4064 117.712 96.559 118.201C95.7117 118.69 94.776 119.008 93.8056 119.134C92.8353 119.261 91.8495 119.195 90.9049 118.939L50.2205 107.988ZM29.8075 78.0164L19.8915 41.0197C18.8673 37.2033 19.4009 33.1364 21.375 29.7135C23.3492 26.2905 26.6021 23.7919 30.4184 22.7672L30.9846 22.6182C30.1958 24.9356 29.7931 27.3669 29.7926 29.8149V31.2081C28.6063 32.1019 27.7143 33.3299 27.2311 34.7344C26.7479 36.1388 26.6956 37.6557 27.0808 39.0902L29.8 49.2296L29.8075 78.0164ZM37.25 69.9108V29.8149C37.25 25.8632 38.8198 22.0733 41.6141 19.279C44.4084 16.4847 48.1983 14.9149 52.15 14.9149H52.9397C51.8446 16.5614 50.9878 18.4164 50.4514 20.4354L49.8405 22.73C48.3481 23.2166 47.0475 24.1622 46.1244 25.4318C45.2012 26.7015 44.7027 28.2303 44.7 29.8V41.9808L37.25 69.9108ZM96.85 44.7C96.85 46.6759 96.0651 48.5708 94.6679 49.968C93.2708 51.3651 91.3759 52.15 89.4 52.15C87.4241 52.15 85.5292 51.3651 84.1321 49.968C82.7349 48.5708 81.95 46.6759 81.95 44.7C81.95 42.7242 82.7349 40.8292 84.1321 39.4321C85.5292 38.0349 87.4241 37.25 89.4 37.25C91.3759 37.25 93.2708 38.0349 94.6679 39.4321C96.0651 40.8292 96.85 42.7242 96.85 44.7ZM74.5 104.3C76.4759 104.3 78.3708 103.515 79.7679 102.118C81.1651 100.721 81.95 98.8259 81.95 96.85C81.95 94.8742 81.1651 92.9792 79.7679 91.5821C78.3708 90.1849 76.4759 89.4 74.5 89.4C72.5241 89.4 70.6292 90.1849 69.2321 91.5821C67.8349 92.9792 67.05 94.8742 67.05 96.85C67.05 98.8259 67.8349 100.721 69.2321 102.118C70.6292 103.515 72.5241 104.3 74.5 104.3Z" fill="#1E1E1E"/>
<path d="M151.96 69.08C151.96 63.64 153.213 58.76 155.72 54.44C158.28 50.12 161.72 46.76 166.04 44.36C170.413 41.9067 175.187 40.68 180.36 40.68C186.28 40.68 191.533 42.1467 196.12 45.08C200.76 47.96 204.12 52.0667 206.2 57.4H195.24C193.8 54.4667 191.8 52.28 189.24 50.84C186.68 49.4 183.72 48.68 180.36 48.68C176.68 48.68 173.4 49.5067 170.52 51.16C167.64 52.8133 165.373 55.1867 163.72 58.28C162.12 61.3733 161.32 64.9733 161.32 69.08C161.32 73.1867 162.12 76.7867 163.72 79.88C165.373 82.9733 167.64 85.3733 170.52 87.08C173.4 88.7333 176.68 89.56 180.36 89.56C183.72 89.56 186.68 88.84 189.24 87.4C191.8 85.96 193.8 83.7733 195.24 80.84H206.2C204.12 86.1733 200.76 90.28 196.12 93.16C191.533 96.04 186.28 97.48 180.36 97.48C175.133 97.48 170.36 96.28 166.04 93.88C161.72 91.4267 158.28 88.04 155.72 83.72C153.213 79.4 151.96 74.52 151.96 69.08ZM213.835 74.76C213.835 70.3333 214.742 66.4133 216.555 63C218.422 59.5867 220.928 56.9467 224.075 55.08C227.275 53.16 230.795 52.2 234.635 52.2C238.102 52.2 241.115 52.8933 243.675 54.28C246.288 55.6133 248.368 57.2933 249.915 59.32V52.92H259.115V97H249.915V90.44C248.368 92.52 246.262 94.2533 243.595 95.64C240.928 97.0267 237.888 97.72 234.475 97.72C230.688 97.72 227.222 96.76 224.075 94.84C220.928 92.8667 218.422 90.1467 216.555 86.68C214.742 83.16 213.835 79.1867 213.835 74.76ZM249.915 74.92C249.915 71.88 249.275 69.24 247.995 67C246.768 64.76 245.142 63.0533 243.115 61.88C241.088 60.7067 238.902 60.12 236.555 60.12C234.208 60.12 232.022 60.7067 229.995 61.88C227.968 63 226.315 64.68 225.035 66.92C223.808 69.1067 223.195 71.72 223.195 74.76C223.195 77.8 223.808 80.4667 225.035 82.76C226.315 85.0533 227.968 86.8133 229.995 88.04C232.075 89.2133 234.262 89.8 236.555 89.8C238.902 89.8 241.088 89.2133 243.115 88.04C245.142 86.8667 246.768 85.16 247.995 82.92C249.275 80.6267 249.915 77.96 249.915 74.92ZM280.214 59.32C281.547 57.08 283.307 55.3467 285.494 54.12C287.734 52.84 290.374 52.2 293.414 52.2V61.64H291.094C287.52 61.64 284.8 62.5467 282.934 64.36C281.12 66.1733 280.214 69.32 280.214 73.8V97H271.094V52.92H280.214V59.32ZM298.757 74.76C298.757 70.3333 299.664 66.4133 301.477 63C303.344 59.5867 305.85 56.9467 308.997 55.08C312.197 53.16 315.744 52.2 319.637 52.2C322.517 52.2 325.344 52.84 328.117 54.12C330.944 55.3467 333.184 57 334.837 59.08V37.8H344.037V97H334.837V90.36C333.344 92.4933 331.264 94.2533 328.597 95.64C325.984 97.0267 322.97 97.72 319.557 97.72C315.717 97.72 312.197 96.76 308.997 94.84C305.85 92.8667 303.344 90.1467 301.477 86.68C299.664 83.16 298.757 79.1867 298.757 74.76ZM334.837 74.92C334.837 71.88 334.197 69.24 332.917 67C331.69 64.76 330.064 63.0533 328.037 61.88C326.01 60.7067 323.824 60.12 321.477 60.12C319.13 60.12 316.944 60.7067 314.917 61.88C312.89 63 311.237 64.68 309.957 66.92C308.73 69.1067 308.117 71.72 308.117 74.76C308.117 77.8 308.73 80.4667 309.957 82.76C311.237 85.0533 312.89 86.8133 314.917 88.04C316.997 89.2133 319.184 89.8 321.477 89.8C323.824 89.8 326.01 89.2133 328.037 88.04C330.064 86.8667 331.69 85.16 332.917 82.92C334.197 80.6267 334.837 77.96 334.837 74.92ZM373.856 97.56C370.176 97.56 366.869 96.92 363.936 95.64C361.056 94.3067 358.789 92.4933 357.136 90.2C355.482 87.8533 354.629 85.16 354.576 82.12H362.336C362.602 84.7333 363.669 86.9467 365.536 88.76C367.456 90.52 370.229 91.4 373.856 91.4C377.322 91.4 380.042 90.5467 382.016 88.84C384.042 87.08 385.056 84.84 385.056 82.12C385.056 79.9867 384.469 78.2533 383.296 76.92C382.122 75.5867 380.656 74.5733 378.896 73.88C377.136 73.1867 374.762 72.44 371.776 71.64C368.096 70.68 365.136 69.72 362.896 68.76C360.709 67.8 358.816 66.3067 357.216 64.28C355.669 62.2 354.896 59.4267 354.896 55.96C354.896 52.92 355.669 50.2267 357.216 47.88C358.762 45.5333 360.922 43.72 363.696 42.44C366.522 41.16 369.749 40.52 373.376 40.52C378.602 40.52 382.869 41.8267 386.176 44.44C389.536 47.0533 391.429 50.52 391.856 54.84H383.856C383.589 52.7067 382.469 50.84 380.496 49.24C378.522 47.5867 375.909 46.76 372.656 46.76C369.616 46.76 367.136 47.56 365.216 49.16C363.296 50.7067 362.336 52.8933 362.336 55.72C362.336 57.7467 362.896 59.4 364.016 60.68C365.189 61.96 366.602 62.9467 368.256 63.64C369.962 64.28 372.336 65.0267 375.376 65.88C379.056 66.8933 382.016 67.9067 384.256 68.92C386.496 69.88 388.416 71.4 390.016 73.48C391.616 75.5067 392.416 78.28 392.416 81.8C392.416 84.52 391.696 87.08 390.256 89.48C388.816 91.88 386.682 93.8267 383.856 95.32C381.029 96.8133 377.696 97.56 373.856 97.56ZM461.529 53.16L447.849 97H440.329L429.769 62.2L419.209 97H411.689L397.929 53.16H405.369L415.449 89.96L426.329 53.16H433.769L444.409 90.04L454.329 53.16H461.529ZM466.034 74.92C466.034 70.44 466.94 66.52 468.754 63.16C470.567 59.7467 473.047 57.1067 476.194 55.24C479.394 53.3733 482.94 52.44 486.834 52.44C490.674 52.44 494.007 53.2667 496.834 54.92C499.66 56.5733 501.767 58.6533 503.154 61.16V53.16H510.514V97H503.154V88.84C501.714 91.4 499.554 93.5333 496.674 95.24C493.847 96.8933 490.54 97.72 486.754 97.72C482.86 97.72 479.34 96.76 476.194 94.84C473.047 92.92 470.567 90.2267 468.754 86.76C466.94 83.2933 466.034 79.3467 466.034 74.92ZM503.154 75C503.154 71.6933 502.487 68.8133 501.154 66.36C499.82 63.9067 498.007 62.04 495.714 60.76C493.474 59.4267 490.994 58.76 488.274 58.76C485.554 58.76 483.074 59.4 480.834 60.68C478.594 61.96 476.807 63.8267 475.474 66.28C474.14 68.7333 473.474 71.6133 473.474 74.92C473.474 78.28 474.14 81.2133 475.474 83.72C476.807 86.1733 478.594 88.0667 480.834 89.4C483.074 90.68 485.554 91.32 488.274 91.32C490.994 91.32 493.474 90.68 495.714 89.4C498.007 88.0667 499.82 86.1733 501.154 83.72C502.487 81.2133 503.154 78.3067 503.154 75ZM530.096 61.24C531.536 58.7333 533.67 56.6533 536.496 55C539.376 53.2933 542.71 52.44 546.496 52.44C550.39 52.44 553.91 53.3733 557.056 55.24C560.256 57.1067 562.763 59.7467 564.576 63.16C566.39 66.52 567.296 70.44 567.296 74.92C567.296 79.3467 566.39 83.2933 564.576 86.76C562.763 90.2267 560.256 92.92 557.056 94.84C553.91 96.76 550.39 97.72 546.496 97.72C542.763 97.72 539.456 96.8933 536.576 95.24C533.75 93.5333 531.59 91.4267 530.096 88.92V117.8H522.816V53.16H530.096V61.24ZM559.856 74.92C559.856 71.6133 559.19 68.7333 557.856 66.28C556.523 63.8267 554.71 61.96 552.416 60.68C550.176 59.4 547.696 58.76 544.976 58.76C542.31 58.76 539.83 59.4267 537.536 60.76C535.296 62.04 533.483 63.9333 532.096 66.44C530.763 68.8933 530.096 71.7467 530.096 75C530.096 78.3067 530.763 81.2133 532.096 83.72C533.483 86.1733 535.296 88.0667 537.536 89.4C539.83 90.68 542.31 91.32 544.976 91.32C547.696 91.32 550.176 90.68 552.416 89.4C554.71 88.0667 556.523 86.1733 557.856 83.72C559.19 81.2133 559.856 78.28 559.856 74.92Z" fill="black"/>
</svg>
